<?xml version="1.0" encoding="utf-8"?>
<!-- Generator: Adobe Illustrator 26.3.1, SVG Export Plug-In . SVG Version: 6.00 Build 0)  -->
<svg version="1.1" id="Layer_1" xmlns="http://www.w3.org/2000/svg" xmlns:xlink="http://www.w3.org/1999/xlink" x="0px" y="0px"
	 viewBox="0 0 500 383" style="enable-background:new 0 0 500 383;" xml:space="preserve">
<style type="text/css">
	.st0{fill:url(#SVGID_1_);}
	.st1{fill:#020203;}
</style>
<linearGradient id="SVGID_1_" gradientUnits="userSpaceOnUse" x1="207.7605" y1="781.175" x2="51.9935" y2="649.0174" gradientTransform="matrix(1 0 0 1 0 -580)">
	<stop  offset="0" style="stop-color:#FFD77E"/>
	<stop  offset="0.5223" style="stop-color:#F0822E"/>
	<stop  offset="1" style="stop-color:#EC6527"/>
</linearGradient>
<path class="st0" d="M288,112.2c-20.5-47.6-67.8-80.9-122.9-80.9C91.3,31.3,31.4,91.2,31.4,165c0,60.3,39.9,111.2,94.7,127.9
	L288,112.2z"/>
<polygon class="st1" points="193.9,217.2 250.9,153.5 164.7,70.5 45.8,306.1 145.8,183.1 "/>
<polygon class="st1" points="398.4,363.6 468.6,363.6 323.9,223.9 200.4,363.6 298.1,292.9 "/>
<polygon class="st1" points="138.5,363.6 315.9,162.1 352.1,184.8 402.1,126.8 446.9,244.6 416.5,91.2 392.3,120.5 360.1,50.4 
	82.5,363.6 "/>
</svg>
