<svg width="205" height="89" viewBox="0 0 205 89" fill="none" xmlns="http://www.w3.org/2000/svg">
<g clip-path="url(#clip0_8209_101)">
<g clip-path="url(#clip1_8209_101)">
<g clip-path="url(#clip2_8209_101)">
<line x1="-1.27388" y1="-1.19506" x2="60.7261" y2="75.8049" stroke="#E76C6C" stroke-width="7"/>
<line x1="-4.72279" y1="67.8008" x2="58.2772" y2="-10.1992" stroke="#E76C6C" stroke-width="7"/>
</g>
<path d="M76.5 57.5C76.5 73.7615 66.1631 85.5 55 85.5C43.8369 85.5 33.5 73.7615 33.5 57.5C33.5 41.2385 43.8369 29.5 55 29.5C66.1631 29.5 76.5 41.2385 76.5 57.5Z" stroke="#54C052" stroke-width="7"/>
</g>
<path d="M45.7773 19.3516C45.0612 19.3516 44.7031 19.0586 44.7031 18.4727V16.8711C44.7031 16.2852 45.0612 15.9922 45.7773 15.9922H66.4414C67.1576 15.9922 67.5156 16.2852 67.5156 16.8711V18.4727C67.5156 19.0586 67.1576 19.3516 66.4414 19.3516H57.9844V42.9258C57.9844 43.6419 57.6589 44 57.0078 44H55.2109C54.5599 44 54.2344 43.6419 54.2344 42.9258V19.3516H45.7773ZM69.8711 44C69.2852 44 68.9922 43.707 68.9922 43.1211V24.3711C68.9922 23.7852 69.2852 23.4922 69.8711 23.4922H71.5508C72.1367 23.4922 72.4297 23.7852 72.4297 24.3711V43.1211C72.4297 43.707 72.1367 44 71.5508 44H69.8711ZM69.8711 19.7812C69.2852 19.7812 68.9922 19.4883 68.9922 18.9023V17.2227C68.9922 16.6367 69.2852 16.3438 69.8711 16.3438H71.5508C72.1367 16.3438 72.4297 16.6367 72.4297 17.2227V18.9023C72.4297 19.4883 72.1367 19.7812 71.5508 19.7812H69.8711ZM74.8633 33.7461C74.8633 30.6862 75.6185 28.1602 77.1289 26.168C78.6523 24.1628 80.9766 23.1602 84.1016 23.1602C86.2109 23.1602 87.819 23.5378 88.9258 24.293C90.0456 25.0352 90.8529 25.7969 91.3477 26.5781C91.6211 27.0078 91.5625 27.3529 91.1719 27.6133L89.9414 28.4141C89.5508 28.6875 89.1602 28.5117 88.7695 27.8867C88.3919 27.2878 87.8581 26.7734 87.168 26.3438C86.4909 25.9141 85.4688 25.6992 84.1016 25.6992C82.3177 25.6992 80.9375 26.3568 79.9609 27.6719C78.9844 28.987 78.4961 31.0117 78.4961 33.7461C78.4961 36.4805 78.9844 38.5052 79.9609 39.8203C80.9375 41.1354 82.3177 41.793 84.1016 41.793C85.5469 41.793 86.6536 41.5195 87.4219 40.9727C88.1901 40.4128 88.75 39.8073 89.1016 39.1562C89.4401 38.5443 89.8242 38.3685 90.2539 38.6289L91.5625 39.4102C91.9531 39.6445 92.0117 39.9961 91.7383 40.4648C91.4128 41.0247 90.6706 41.8125 89.5117 42.8281C88.3659 43.8307 86.5625 44.332 84.1016 44.332C80.9766 44.332 78.6523 43.3359 77.1289 41.3438C75.6185 39.3385 74.8633 36.806 74.8633 33.7461Z" fill="#5F64E1"/>
<path d="M93.0195 19.3516C92.3034 19.3516 91.9453 19.0586 91.9453 18.4727V16.8711C91.9453 16.2852 92.3034 15.9922 93.0195 15.9922H113.684C114.4 15.9922 114.758 16.2852 114.758 16.8711V18.4727C114.758 19.0586 114.4 19.3516 113.684 19.3516H105.227V42.9258C105.227 43.6419 104.901 44 104.25 44H102.453C101.802 44 101.477 43.6419 101.477 42.9258V19.3516H93.0195ZM110.902 38.5312C110.902 36.2135 111.983 34.5143 114.145 33.4336C116.319 32.3529 119.561 31.7214 123.871 31.5391V30.2109C123.871 28.987 123.591 27.9323 123.031 27.0469C122.484 26.1484 121.391 25.6992 119.75 25.6992C118.708 25.6992 117.875 25.8034 117.25 26.0117C116.625 26.207 116.052 26.474 115.531 26.8125C115.023 27.138 114.535 27.5612 114.066 28.082C113.715 28.4727 113.383 28.4922 113.07 28.1406L112.055 26.9688C111.768 26.6432 111.866 26.2526 112.348 25.7969C113.038 25.1458 113.708 24.6576 114.359 24.332C115.01 24.0065 115.818 23.7331 116.781 23.5117C117.758 23.2773 118.747 23.1602 119.75 23.1602C122.471 23.1602 124.411 23.8633 125.57 25.2695C126.729 26.6628 127.309 28.5768 127.309 31.0117V43.1211C127.309 43.707 127.016 44 126.43 44H124.672C124.164 44 123.91 43.707 123.91 43.1211V42.1641H123.871C122.842 42.9714 121.833 43.5378 120.844 43.8633C119.867 44.1758 118.773 44.332 117.562 44.332C115.427 44.332 113.78 43.8242 112.621 42.8086C111.475 41.7799 110.902 40.3542 110.902 38.5312ZM114.457 38.6094C114.457 39.4167 114.626 40.0677 114.965 40.5625C115.303 41.0443 115.772 41.3568 116.371 41.5C116.97 41.6302 117.595 41.6953 118.246 41.6953C119.249 41.6953 120.199 41.5977 121.098 41.4023C121.996 41.207 122.921 40.6927 123.871 39.8594V34.0977C121.241 34.293 119.366 34.5339 118.246 34.8203C117.126 35.0938 116.215 35.5755 115.512 36.2656C114.809 36.9427 114.457 37.724 114.457 38.6094ZM129.762 33.7461C129.762 30.6862 130.517 28.1602 132.027 26.168C133.551 24.1628 135.875 23.1602 139 23.1602C141.109 23.1602 142.717 23.5378 143.824 24.293C144.944 25.0352 145.751 25.7969 146.246 26.5781C146.52 27.0078 146.461 27.3529 146.07 27.6133L144.84 28.4141C144.449 28.6875 144.059 28.5117 143.668 27.8867C143.29 27.2878 142.757 26.7734 142.066 26.3438C141.389 25.9141 140.367 25.6992 139 25.6992C137.216 25.6992 135.836 26.3568 134.859 27.6719C133.883 28.987 133.395 31.0117 133.395 33.7461C133.395 36.4805 133.883 38.5052 134.859 39.8203C135.836 41.1354 137.216 41.793 139 41.793C140.445 41.793 141.552 41.5195 142.32 40.9727C143.089 40.4128 143.648 39.8073 144 39.1562C144.339 38.5443 144.723 38.3685 145.152 38.6289L146.461 39.4102C146.852 39.6445 146.91 39.9961 146.637 40.4648C146.311 41.0247 145.569 41.8125 144.41 42.8281C143.264 43.8307 141.461 44.332 139 44.332C135.875 44.332 133.551 43.3359 132.027 41.3438C130.517 39.3385 129.762 36.806 129.762 33.7461Z" fill="#E77F05"/>
<path d="M147.918 19.3516C147.202 19.3516 146.844 19.0586 146.844 18.4727V16.8711C146.844 16.2852 147.202 15.9922 147.918 15.9922H168.582C169.298 15.9922 169.656 16.2852 169.656 16.8711V18.4727C169.656 19.0586 169.298 19.3516 168.582 19.3516H160.125V42.9258C160.125 43.6419 159.799 44 159.148 44H157.352C156.701 44 156.375 43.6419 156.375 42.9258V19.3516H147.918ZM164.199 33.7461C164.199 30.6862 165.007 28.1602 166.621 26.168C168.249 24.1628 170.625 23.1602 173.75 23.1602C176.875 23.1602 179.245 24.1628 180.859 26.168C182.487 28.1602 183.301 30.6862 183.301 33.7461C183.301 36.806 182.487 39.3385 180.859 41.3438C179.245 43.3359 176.875 44.332 173.75 44.332C170.625 44.332 168.249 43.3359 166.621 41.3438C165.007 39.3385 164.199 36.806 164.199 33.7461ZM167.832 33.7461C167.832 36.4805 168.372 38.5052 169.453 39.8203C170.534 41.1354 171.966 41.793 173.75 41.793C175.534 41.793 176.966 41.1354 178.047 39.8203C179.128 38.5052 179.668 36.4805 179.668 33.7461C179.668 31.0117 179.128 28.987 178.047 27.6719C176.966 26.3568 175.534 25.6992 173.75 25.6992C171.966 25.6992 170.534 26.3568 169.453 27.6719C168.372 28.987 167.832 31.0117 167.832 33.7461ZM184.621 33.7461C184.621 30.5169 185.428 27.9453 187.043 26.0312C188.658 24.1172 190.969 23.1602 193.977 23.1602C196.477 23.1602 198.547 24.0391 200.188 25.7969C201.841 27.5417 202.668 30.3346 202.668 34.1758C202.668 34.7617 202.401 35.0547 201.867 35.0547H188.254C188.475 37.5677 189.152 39.319 190.285 40.3086C191.418 41.2852 192.701 41.7734 194.133 41.7734C195.643 41.7734 196.802 41.5195 197.609 41.0117C198.417 40.5039 199.009 40.0026 199.387 39.5078C199.803 38.9609 200.207 38.8568 200.598 39.1953L201.75 40.1914C202.049 40.4518 202.049 40.8099 201.75 41.2656C201.503 41.6432 200.793 42.2487 199.621 43.082C198.462 43.9154 196.633 44.332 194.133 44.332C190.878 44.332 188.475 43.375 186.926 41.4609C185.389 39.5469 184.621 36.9753 184.621 33.7461ZM188.176 32.5156H199.211C199.159 30.6927 198.69 29.0977 197.805 27.7305C196.919 26.3503 195.617 25.6602 193.898 25.6602C192.388 25.6602 191.105 26.168 190.051 27.1836C188.996 28.1862 188.371 29.9635 188.176 32.5156Z" fill="#DF6FF1"/>
<path d="M84.2969 75C83.6458 75 83.3203 74.6419 83.3203 73.9258V48.0664C83.3203 47.3503 83.6458 46.9922 84.2969 46.9922H91.9141C96.3411 46.9922 99.3229 47.7083 100.859 49.1406C102.396 50.5729 103.164 52.2982 103.164 54.3164C103.164 55.918 102.526 57.2786 101.25 58.3984C99.974 59.5052 98.737 60.1562 97.5391 60.3516V60.4102C98.8542 60.5273 100.319 61.1849 101.934 62.3828C103.561 63.5677 104.375 65.1823 104.375 67.2266C104.375 69.4401 103.555 71.2891 101.914 72.7734C100.286 74.2578 97.2786 75 92.8906 75H84.2969ZM87.0703 71.7969H92.2656C95.0651 71.7969 97.1159 71.4518 98.418 70.7617C99.7201 70.0716 100.371 68.8542 100.371 67.1094C100.371 65.4948 99.707 64.2448 98.3789 63.3594C97.0638 62.474 95.026 62.0312 92.2656 62.0312H87.0703V71.7969ZM87.0703 59.2188H91.9727C94.1471 59.2188 95.918 58.7565 97.2852 57.832C98.6654 56.8945 99.3555 55.7227 99.3555 54.3164C99.3555 52.9753 98.8411 51.9531 97.8125 51.25C96.7839 50.5469 94.8372 50.1953 91.9727 50.1953H87.0703V59.2188ZM108.176 75C107.59 75 107.297 74.707 107.297 74.1211V55.3711C107.297 54.7852 107.59 54.4922 108.176 54.4922H109.855C110.441 54.4922 110.734 54.7852 110.734 55.3711V74.1211C110.734 74.707 110.441 75 109.855 75H108.176ZM108.176 50.7812C107.59 50.7812 107.297 50.4883 107.297 49.9023V48.2227C107.297 47.6367 107.59 47.3438 108.176 47.3438H109.855C110.441 47.3438 110.734 47.6367 110.734 48.2227V49.9023C110.734 50.4883 110.441 50.7812 109.855 50.7812H108.176Z" fill="#E76C6C"/>
<path d="M115.16 75C114.574 75 114.281 74.707 114.281 74.1211V47.0508C114.281 46.4648 114.574 46.1719 115.16 46.1719H116.84C117.426 46.1719 117.719 46.4648 117.719 47.0508V55.7422C117.719 56.1458 117.706 56.543 117.68 56.9336H117.719C118.435 56.0742 119.242 55.3971 120.141 54.9023C121.039 54.4076 122.237 54.1602 123.734 54.1602C126.339 54.1602 128.318 55.2279 129.672 57.3633C131.026 59.4857 131.703 61.9466 131.703 64.7461C131.703 67.5456 131.026 70.013 129.672 72.1484C128.318 74.2708 126.339 75.332 123.734 75.332C122.237 75.332 121.039 75.0846 120.141 74.5898C119.242 74.0951 118.435 73.418 117.719 72.5586H117.68L117.562 74.1211C117.523 74.707 117.27 75 116.801 75H115.16ZM117.719 66.9922C117.719 68.9453 118.181 70.4036 119.105 71.3672C120.043 72.3177 121.215 72.793 122.621 72.793C124.6 72.793 126 72.0508 126.82 70.5664C127.654 69.082 128.07 67.1419 128.07 64.7461C128.07 62.3503 127.654 60.4102 126.82 58.9258C126 57.4414 124.6 56.6992 122.621 56.6992C121.215 56.6992 120.043 57.181 119.105 58.1445C118.181 59.0951 117.719 60.5469 117.719 62.5V66.9922ZM135.035 75C134.449 75 134.156 74.707 134.156 74.1211V49.7461C134.156 49.4857 134.221 49.2383 134.352 49.0039L135.719 46.5234C135.966 46.0677 136.168 45.8398 136.324 45.8398H137.008C137.398 45.8398 137.594 46.0677 137.594 46.5234V74.1211C137.594 74.707 137.301 75 136.715 75H135.035ZM140.027 64.7461C140.027 61.5169 140.835 58.9453 142.449 57.0312C144.064 55.1172 146.375 54.1602 149.383 54.1602C151.883 54.1602 153.953 55.0391 155.594 56.7969C157.247 58.5417 158.074 61.3346 158.074 65.1758C158.074 65.7617 157.807 66.0547 157.273 66.0547H143.66C143.882 68.5677 144.559 70.319 145.691 71.3086C146.824 72.2852 148.107 72.7734 149.539 72.7734C151.049 72.7734 152.208 72.5195 153.016 72.0117C153.823 71.5039 154.415 71.0026 154.793 70.5078C155.21 69.9609 155.613 69.8568 156.004 70.1953L157.156 71.1914C157.456 71.4518 157.456 71.8099 157.156 72.2656C156.909 72.6432 156.199 73.2487 155.027 74.082C153.868 74.9154 152.039 75.332 149.539 75.332C146.284 75.332 143.882 74.375 142.332 72.4609C140.796 70.5469 140.027 67.9753 140.027 64.7461ZM143.582 63.5156H154.617C154.565 61.6927 154.096 60.0977 153.211 58.7305C152.326 57.3503 151.023 56.6602 149.305 56.6602C147.794 56.6602 146.512 57.168 145.457 58.1836C144.402 59.1862 143.777 60.9635 143.582 63.5156Z" fill="#54C052"/>
</g>
<defs>
<clipPath id="clip0_8209_101">
<rect width="205" height="89" fill="white"/>
</clipPath>
<clipPath id="clip1_8209_101">
<rect width="80" height="89" fill="white"/>
</clipPath>
<clipPath id="clip2_8209_101">
<rect width="50" height="62" fill="white"/>
</clipPath>
</defs>
</svg>
