<svg width="136" height="62" viewBox="0 0 136 62" fill="none" xmlns="http://www.w3.org/2000/svg">
<g clip-path="url(#clip0_8209_103)">
<g clip-path="url(#clip1_8209_103)">
<g clip-path="url(#clip2_8209_103)">
<line x1="-0.63944" y1="-1.85142" x2="39.3606" y2="49.1486" stroke="#E76C6C" stroke-width="6"/>
<line x1="-0.36056" y1="49.1486" x2="39.6394" y2="-1.85142" stroke="#E76C6C" stroke-width="6"/>
</g>
<path d="M51.5 40.5C51.5 51.5726 44.4927 59.5 37 59.5C29.5073 59.5 22.5 51.5726 22.5 40.5C22.5 29.4274 29.5073 21.5 37 21.5C44.4927 21.5 51.5 29.4274 51.5 40.5Z" stroke="#54C052" stroke-width="5"/>
</g>
<path d="M42.5107 3.04883C41.902 3.04883 41.5977 2.7998 41.5977 2.30176V0.94043C41.5977 0.442383 41.902 0.193359 42.5107 0.193359H60.0752C60.6839 0.193359 60.9883 0.442383 60.9883 0.94043V2.30176C60.9883 2.7998 60.6839 3.04883 60.0752 3.04883H52.8867V23.0869C52.8867 23.6956 52.61 24 52.0566 24H50.5293C49.9759 24 49.6992 23.6956 49.6992 23.0869V3.04883H42.5107Z" fill="#5F64E1"/>
<path d="M96.5107 3.04883C95.902 3.04883 95.5977 2.7998 95.5977 2.30176V0.94043C95.5977 0.442383 95.902 0.193359 96.5107 0.193359H114.075C114.684 0.193359 114.988 0.442383 114.988 0.94043V2.30176C114.988 2.7998 114.684 3.04883 114.075 3.04883H106.887V23.0869C106.887 23.6956 106.61 24 106.057 24H104.529C103.976 24 103.699 23.6956 103.699 23.0869V3.04883H96.5107Z" fill="#DF6FF1"/>
<path d="M65.5107 3.04883C64.902 3.04883 64.5977 2.7998 64.5977 2.30176V0.94043C64.5977 0.442383 64.902 0.193359 65.5107 0.193359H83.0752C83.6839 0.193359 83.9883 0.442383 83.9883 0.94043V2.30176C83.9883 2.7998 83.6839 3.04883 83.0752 3.04883H75.8867V23.0869C75.8867 23.6956 75.61 24 75.0566 24H73.5293C72.9759 24 72.6992 23.6956 72.6992 23.0869V3.04883H65.5107Z" fill="#E77F05"/>
<path d="M68.0078 52C67.5521 52 67.3242 51.7493 67.3242 51.248V33.1465C67.3242 32.6452 67.5521 32.3945 68.0078 32.3945H73.3398C76.4388 32.3945 78.526 32.8958 79.6016 33.8984C80.6771 34.901 81.2148 36.1087 81.2148 37.5215C81.2148 38.6426 80.7682 39.5951 79.875 40.3789C78.9818 41.1536 78.1159 41.6094 77.2773 41.7461V41.7871C78.1979 41.8691 79.2233 42.3294 80.3535 43.168C81.4928 43.9974 82.0625 45.1276 82.0625 46.5586C82.0625 48.1081 81.4883 49.4023 80.3398 50.4414C79.2005 51.4805 77.0951 52 74.0234 52H68.0078ZM69.9492 49.7578H73.5859C75.5456 49.7578 76.9811 49.5163 77.8926 49.0332C78.804 48.5501 79.2598 47.6979 79.2598 46.4766C79.2598 45.3464 78.7949 44.4714 77.8652 43.8516C76.9447 43.2318 75.5182 42.9219 73.5859 42.9219H69.9492V49.7578ZM69.9492 40.9531H73.3809C74.903 40.9531 76.1426 40.6296 77.0996 39.9824C78.0658 39.3262 78.5488 38.5059 78.5488 37.5215C78.5488 36.5827 78.1888 35.8672 77.4688 35.375C76.7487 34.8828 75.3861 34.6367 73.3809 34.6367H69.9492V40.9531ZM84.723 52C84.3129 52 84.1078 51.7949 84.1078 51.3848V38.2598C84.1078 37.8496 84.3129 37.6445 84.723 37.6445H85.8988C86.309 37.6445 86.5141 37.8496 86.5141 38.2598V51.3848C86.5141 51.7949 86.309 52 85.8988 52H84.723ZM84.723 35.0469C84.3129 35.0469 84.1078 34.8418 84.1078 34.4316V33.2559C84.1078 32.8457 84.3129 32.6406 84.723 32.6406H85.8988C86.309 32.6406 86.5141 32.8457 86.5141 33.2559V34.4316C86.5141 34.8418 86.309 35.0469 85.8988 35.0469H84.723Z" fill="#E76C6C"/>
<path d="M89.6121 52C89.202 52 88.9969 51.7949 88.9969 51.3848V32.4355C88.9969 32.0254 89.202 31.8203 89.6121 31.8203H90.7879C91.198 31.8203 91.4031 32.0254 91.4031 32.4355V38.5195C91.4031 38.8021 91.394 39.0801 91.3758 39.3535H91.4031C91.9044 38.752 92.4695 38.278 93.0984 37.9316C93.7273 37.5853 94.5659 37.4121 95.6141 37.4121C97.437 37.4121 98.8224 38.1595 99.7703 39.6543C100.718 41.14 101.192 42.8626 101.192 44.8223C101.192 46.7819 100.718 48.5091 99.7703 50.0039C98.8224 51.4896 97.437 52.2324 95.6141 52.2324C94.5659 52.2324 93.7273 52.0592 93.0984 51.7129C92.4695 51.3665 91.9044 50.8926 91.4031 50.291H91.3758L91.2938 51.3848C91.2664 51.7949 91.0887 52 90.7605 52H89.6121ZM91.4031 46.3945C91.4031 47.7617 91.7267 48.7826 92.3738 49.457C93.0301 50.1224 93.8504 50.4551 94.8348 50.4551C96.2202 50.4551 97.2 49.9355 97.7742 48.8965C98.3576 47.8574 98.6492 46.4993 98.6492 44.8223C98.6492 43.1452 98.3576 41.7871 97.7742 40.748C97.2 39.709 96.2202 39.1895 94.8348 39.1895C93.8504 39.1895 93.0301 39.5267 92.3738 40.2012C91.7267 40.8665 91.4031 41.8828 91.4031 43.25V46.3945ZM103.525 52C103.114 52 102.909 51.7949 102.909 51.3848V34.3223C102.909 34.14 102.955 33.9668 103.046 33.8027L104.003 32.0664C104.176 31.7474 104.318 31.5879 104.427 31.5879H104.905C105.179 31.5879 105.316 31.7474 105.316 32.0664V51.3848C105.316 51.7949 105.111 52 104.7 52H103.525ZM107.019 44.8223C107.019 42.5618 107.584 40.7617 108.714 39.4219C109.845 38.082 111.463 37.4121 113.568 37.4121C115.318 37.4121 116.767 38.0273 117.916 39.2578C119.073 40.4792 119.652 42.4342 119.652 45.123C119.652 45.5332 119.465 45.7383 119.091 45.7383H109.562C109.717 47.4974 110.191 48.7233 110.984 49.416C111.777 50.0996 112.675 50.4414 113.677 50.4414C114.735 50.4414 115.546 50.2637 116.111 49.9082C116.676 49.5527 117.091 49.2018 117.355 48.8555C117.647 48.4727 117.929 48.3997 118.203 48.6367L119.009 49.334C119.219 49.5163 119.219 49.7669 119.009 50.0859C118.836 50.3503 118.339 50.7741 117.519 51.3574C116.708 51.9408 115.427 52.2324 113.677 52.2324C111.399 52.2324 109.717 51.5625 108.632 50.2227C107.557 48.8828 107.019 47.0827 107.019 44.8223ZM109.507 43.9609H117.232C117.196 42.6849 116.867 41.5684 116.248 40.6113C115.628 39.6452 114.716 39.1621 113.513 39.1621C112.456 39.1621 111.558 39.5176 110.82 40.2285C110.082 40.9303 109.644 42.1745 109.507 43.9609Z" fill="#54C052"/>
<path d="M56.5566 24C56.1465 24 55.9414 23.7949 55.9414 23.3848V10.2598C55.9414 9.84961 56.1465 9.64453 56.5566 9.64453H57.7324C58.1426 9.64453 58.3477 9.84961 58.3477 10.2598V23.3848C58.3477 23.7949 58.1426 24 57.7324 24H56.5566ZM56.5566 7.04688C56.1465 7.04688 55.9414 6.8418 55.9414 6.43164V5.25586C55.9414 4.8457 56.1465 4.64062 56.5566 4.64062H57.7324C58.1426 4.64062 58.3477 4.8457 58.3477 5.25586V6.43164C58.3477 6.8418 58.1426 7.04688 57.7324 7.04688H56.5566ZM59.7712 16.8223C59.7712 14.6803 60.2998 12.9121 61.3571 11.5176C62.4235 10.1139 64.0505 9.41211 66.238 9.41211C67.7145 9.41211 68.8402 9.67643 69.6149 10.2051C70.3988 10.7246 70.9639 11.2578 71.3102 11.8047C71.5016 12.1055 71.4606 12.347 71.1872 12.5293L70.3259 13.0898C70.0524 13.2812 69.779 13.1582 69.5055 12.7207C69.2412 12.3014 68.8675 11.9414 68.3845 11.6406C67.9105 11.3398 67.195 11.1895 66.238 11.1895C64.9893 11.1895 64.0231 11.6497 63.3395 12.5703C62.6559 13.4909 62.3141 14.9082 62.3141 16.8223C62.3141 18.7363 62.6559 20.1536 63.3395 21.0742C64.0231 21.9948 64.9893 22.4551 66.238 22.4551C67.2497 22.4551 68.0244 22.2637 68.5622 21.8809C69.0999 21.4889 69.4919 21.0651 69.738 20.6094C69.9749 20.181 70.2438 20.0579 70.5446 20.2402L71.4606 20.7871C71.7341 20.9512 71.7751 21.1973 71.5837 21.5254C71.3558 21.9173 70.8363 22.4688 70.0251 23.1797C69.223 23.8815 67.9606 24.2324 66.238 24.2324C64.0505 24.2324 62.4235 23.5352 61.3571 22.1406C60.2998 20.737 59.7712 18.9642 59.7712 16.8223Z" fill="#5F64E1"/>
<path d="M76.1621 20.1719C76.1621 18.5495 76.9186 17.36 78.4316 16.6035C79.9538 15.847 82.2233 15.4049 85.2402 15.2773V14.3477C85.2402 13.4909 85.0443 12.7526 84.6523 12.1328C84.2695 11.5039 83.5039 11.1895 82.3555 11.1895C81.6263 11.1895 81.043 11.2624 80.6055 11.4082C80.168 11.5449 79.7669 11.7318 79.4023 11.9688C79.0469 12.1966 78.7051 12.4928 78.377 12.8574C78.1309 13.1309 77.8984 13.1445 77.6797 12.8984L76.9688 12.0781C76.7682 11.8503 76.8366 11.5768 77.1738 11.2578C77.6569 10.8021 78.1263 10.4603 78.582 10.2324C79.0378 10.0046 79.6029 9.81315 80.2773 9.6582C80.9609 9.49414 81.6536 9.41211 82.3555 9.41211C84.2604 9.41211 85.6185 9.9043 86.4297 10.8887C87.2409 11.8639 87.6465 13.2038 87.6465 14.9082V23.3848C87.6465 23.7949 87.4414 24 87.0312 24H85.8008C85.4453 24 85.2676 23.7949 85.2676 23.3848V22.7148H85.2402C84.5202 23.2799 83.8138 23.6764 83.1211 23.9043C82.4375 24.123 81.6719 24.2324 80.8242 24.2324C79.3294 24.2324 78.1764 23.877 77.3652 23.166C76.5632 22.446 76.1621 21.4479 76.1621 20.1719ZM78.6504 20.2266C78.6504 20.7917 78.7689 21.2474 79.0059 21.5938C79.2428 21.931 79.571 22.1497 79.9902 22.25C80.4095 22.3411 80.847 22.3867 81.3027 22.3867C82.0046 22.3867 82.6699 22.3184 83.2988 22.1816C83.9277 22.0449 84.5749 21.6849 85.2402 21.1016V17.0684C83.3991 17.2051 82.0866 17.3737 81.3027 17.5742C80.5189 17.7656 79.8809 18.1029 79.3887 18.5859C78.8965 19.0599 78.6504 19.6068 78.6504 20.2266ZM89.0837 16.8223C89.0837 14.6803 89.6123 12.9121 90.6696 11.5176C91.736 10.1139 93.363 9.41211 95.5505 9.41211C97.027 9.41211 98.1527 9.67643 98.9274 10.2051C99.7113 10.7246 100.276 11.2578 100.623 11.8047C100.814 12.1055 100.773 12.347 100.5 12.5293L99.6384 13.0898C99.3649 13.2812 99.0915 13.1582 98.818 12.7207C98.5537 12.3014 98.18 11.9414 97.697 11.6406C97.223 11.3398 96.5075 11.1895 95.5505 11.1895C94.3018 11.1895 93.3356 11.6497 92.652 12.5703C91.9684 13.4909 91.6266 14.9082 91.6266 16.8223C91.6266 18.7363 91.9684 20.1536 92.652 21.0742C93.3356 21.9948 94.3018 22.4551 95.5505 22.4551C96.5622 22.4551 97.3369 22.2637 97.8747 21.8809C98.4124 21.4889 98.8044 21.0651 99.0505 20.6094C99.2874 20.181 99.5563 20.0579 99.8571 20.2402L100.773 20.7871C101.047 20.9512 101.088 21.1973 100.896 21.5254C100.668 21.9173 100.149 22.4688 99.3376 23.1797C98.5355 23.8815 97.2731 24.2324 95.5505 24.2324C93.363 24.2324 91.736 23.5352 90.6696 22.1406C89.6123 20.737 89.0837 18.9642 89.0837 16.8223Z" fill="#E77F05"/>
<path d="M107.162 16.8223C107.162 14.6803 107.727 12.9121 108.857 11.5176C109.997 10.1139 111.66 9.41211 113.848 9.41211C116.035 9.41211 117.694 10.1139 118.824 11.5176C119.964 12.9121 120.533 14.6803 120.533 16.8223C120.533 18.9642 119.964 20.737 118.824 22.1406C117.694 23.5352 116.035 24.2324 113.848 24.2324C111.66 24.2324 109.997 23.5352 108.857 22.1406C107.727 20.737 107.162 18.9642 107.162 16.8223ZM109.705 16.8223C109.705 18.7363 110.083 20.1536 110.84 21.0742C111.596 21.9948 112.599 22.4551 113.848 22.4551C115.096 22.4551 116.099 21.9948 116.855 21.0742C117.612 20.1536 117.99 18.7363 117.99 16.8223C117.99 14.9082 117.612 13.4909 116.855 12.5703C116.099 11.6497 115.096 11.1895 113.848 11.1895C112.599 11.1895 111.596 11.6497 110.84 12.5703C110.083 13.4909 109.705 14.9082 109.705 16.8223ZM121.177 16.8223C121.177 14.5618 121.743 12.7617 122.873 11.4219C124.003 10.082 125.621 9.41211 127.726 9.41211C129.476 9.41211 130.925 10.0273 132.074 11.2578C133.231 12.4792 133.81 14.4342 133.81 17.123C133.81 17.5332 133.623 17.7383 133.25 17.7383H123.72C123.875 19.4974 124.349 20.7233 125.142 21.416C125.935 22.0996 126.833 22.4414 127.836 22.4414C128.893 22.4414 129.704 22.2637 130.269 21.9082C130.834 21.5527 131.249 21.2018 131.513 20.8555C131.805 20.4727 132.088 20.3997 132.361 20.6367L133.168 21.334C133.377 21.5163 133.377 21.7669 133.168 22.0859C132.994 22.3503 132.498 22.7741 131.677 23.3574C130.866 23.9408 129.586 24.2324 127.836 24.2324C125.557 24.2324 123.875 23.5625 122.791 22.2227C121.715 20.8828 121.177 19.0827 121.177 16.8223ZM123.666 15.9609H131.39C131.354 14.6849 131.026 13.5684 130.406 12.6113C129.786 11.6452 128.875 11.1621 127.672 11.1621C126.614 11.1621 125.716 11.5176 124.978 12.2285C124.24 12.9303 123.802 14.1745 123.666 15.9609Z" fill="#DF6FF1"/>
</g>
<defs>
<clipPath id="clip0_8209_103">
<rect width="136" height="62" fill="white"/>
</clipPath>
<clipPath id="clip1_8209_103">
<rect width="54" height="62" fill="white"/>
</clipPath>
<clipPath id="clip2_8209_103">
<rect width="39" height="48" fill="white"/>
</clipPath>
</defs>
</svg>
